<svg width="186" height="180" viewBox="0 0 186 180" fill="none" xmlns="http://www.w3.org/2000/svg">
<g clip-path="url(#clip0_1156_129863)">
<path d="M117.865 40.4812H68.1768C67.0444 40.4825 65.9589 40.933 65.1582 41.7336C64.3576 42.5343 63.9072 43.6198 63.9058 44.7521V155.185L63.3363 155.359L51.1469 159.092C50.5692 159.268 49.9453 159.208 49.412 158.924C48.8787 158.641 48.4797 158.157 48.3025 157.58L12.0447 39.1458C11.8683 38.5681 11.9284 37.944 12.2119 37.4106C12.4954 36.8772 12.9791 36.4782 13.5566 36.3013L32.3405 30.5497L86.7954 13.8815L105.579 8.12994C105.865 8.04196 106.165 8.01122 106.463 8.03947C106.761 8.06772 107.05 8.15441 107.314 8.29458C107.579 8.43475 107.813 8.62564 108.003 8.85633C108.193 9.08703 108.336 9.353 108.424 9.63902L117.692 39.9117L117.865 40.4812Z" fill="#35383F"/>
<path d="M128.708 39.9116L117.538 3.42605C117.352 2.81813 117.048 2.25279 116.644 1.76233C116.24 1.27188 115.743 0.865917 115.181 0.567648C114.62 0.26938 114.005 0.0846469 113.372 0.0240136C112.74 -0.0366197 112.101 0.0280345 111.493 0.214275L85.0843 8.29781L30.6323 24.9689L4.22344 33.0552C2.99662 33.432 1.96939 34.28 1.36722 35.4134C0.765054 36.5467 0.637145 37.8726 1.01158 39.1001L39.1884 163.793C39.4926 164.784 40.1063 165.651 40.9396 166.267C41.7729 166.884 42.7817 167.217 43.8183 167.218C44.298 167.218 44.775 167.146 45.2333 167.004L63.3366 161.464L63.906 161.287V160.692L63.3366 160.866L45.0653 166.461C43.9825 166.791 42.8128 166.678 41.8131 166.147C40.8133 165.616 40.065 164.71 39.7323 163.628L1.55838 38.9321C1.39354 38.3959 1.3361 37.8325 1.38932 37.2741C1.44254 36.7157 1.60539 36.1733 1.86854 35.6779C2.1317 35.1825 2.48999 34.7439 2.9229 34.3872C3.3558 34.0305 3.85482 33.7627 4.39138 33.5991L30.8002 25.5127L85.2524 8.8445L111.661 0.758118C112.068 0.633918 112.491 0.570591 112.917 0.570194C113.83 0.572245 114.719 0.866645 115.452 1.41027C116.186 1.9539 116.726 2.71819 116.994 3.5912L128.113 39.9116L128.29 40.4811H128.882L128.708 39.9116Z" fill="#3F3D56"/>
<path d="M35.7297 36.394C35.181 36.3936 34.6467 36.2173 34.2055 35.8911C33.7642 35.5648 33.4391 35.1057 33.2778 34.5812L29.6104 22.602C29.5118 22.2802 29.4776 21.9422 29.5097 21.6072C29.5418 21.2722 29.6396 20.9468 29.7975 20.6496C29.9554 20.3524 30.1703 20.0892 30.4299 19.8751C30.6895 19.6609 30.9888 19.5 31.3106 19.4015L81.406 4.06481C82.0559 3.86651 82.7578 3.93414 83.3579 4.25287C83.958 4.57159 84.407 5.11538 84.6066 5.76486L88.274 17.7442C88.4722 18.394 88.4045 19.096 88.0858 19.696C87.7671 20.296 87.2234 20.7451 86.574 20.9448L36.4784 36.2815C36.2358 36.3559 35.9835 36.3939 35.7297 36.394Z" fill="#7210FF"/>
<path d="M54.9407 12.7994C58.0858 12.7994 60.6354 10.2499 60.6354 7.10479C60.6354 3.95973 58.0858 1.41016 54.9407 1.41016C51.7957 1.41016 49.2461 3.95973 49.2461 7.10479C49.2461 10.2499 51.7957 12.7994 54.9407 12.7994Z" fill="#7210FF"/>
<path d="M54.942 10.712C56.9335 10.712 58.548 9.09757 58.548 7.10602C58.548 5.11447 56.9335 3.5 54.942 3.5C52.9504 3.5 51.3359 5.11447 51.3359 7.10602C51.3359 9.09757 52.9504 10.712 54.942 10.712Z" fill="#1F222A"/>
<path d="M172.388 165.764H76.1487C75.5071 165.764 74.8919 165.508 74.4382 165.055C73.9845 164.601 73.7293 163.986 73.7285 163.344V48.0276C73.7292 47.386 73.9844 46.7708 74.4382 46.3171C74.8919 45.8634 75.5071 45.6081 76.1487 45.6074H172.388C173.03 45.6082 173.645 45.8634 174.099 46.3171C174.552 46.7708 174.808 47.386 174.808 48.0276V163.344C174.808 163.986 174.552 164.601 174.099 165.055C173.645 165.508 173.03 165.763 172.388 165.764Z" fill="#35383F"/>
<path d="M128.112 39.9121H68.1764C66.8932 39.9139 65.663 40.4245 64.7557 41.3318C63.8483 42.2392 63.3378 43.4693 63.3359 44.7526V160.866L63.9054 160.693V44.7526C63.9068 43.6202 64.3572 42.5347 65.1579 41.734C65.9585 40.9334 67.0441 40.483 68.1764 40.4816H128.289L128.112 39.9121ZM180.361 39.9121H68.1764C66.8932 39.9139 65.663 40.4245 64.7557 41.3318C63.8483 42.2392 63.3378 43.4693 63.3359 44.7526V175.16C63.3378 176.443 63.8483 177.673 64.7557 178.58C65.663 179.488 66.8932 179.998 68.1764 180H180.361C181.644 179.998 182.874 179.488 183.781 178.58C184.689 177.673 185.199 176.443 185.201 175.16V44.7526C185.199 43.4693 184.689 42.2392 183.781 41.3318C182.874 40.4245 181.644 39.9139 180.361 39.9121ZM184.632 175.16C184.63 176.292 184.18 177.378 183.379 178.178C182.579 178.979 181.493 179.429 180.361 179.431H68.1764C67.0441 179.429 65.9585 178.979 65.1579 178.178C64.3572 177.378 63.9068 176.292 63.9054 175.16V44.7526C63.9068 43.6202 64.3572 42.5347 65.1579 41.734C65.9585 40.9334 67.0441 40.483 68.1764 40.4816H180.361C181.493 40.483 182.579 40.9334 183.379 41.734C184.18 42.5347 184.63 43.6202 184.632 44.7526V175.16Z" fill="#3F3D56"/>
<path d="M150.465 52.4405H98.0743C97.3949 52.4397 96.7435 52.1695 96.2631 51.6891C95.7827 51.2087 95.5125 50.5573 95.5117 49.8779V37.3497C95.5125 36.6703 95.7827 36.0189 96.2631 35.5385C96.7435 35.0581 97.3949 34.7879 98.0743 34.7871H150.465C151.144 34.7879 151.796 35.0581 152.276 35.5385C152.757 36.0189 153.027 36.6703 153.028 37.3497V49.8779C153.027 50.5573 152.757 51.2087 152.276 51.6891C151.796 52.1695 151.144 52.4397 150.465 52.4405Z" fill="#7210FF"/>
<path d="M124.269 35.6412C127.414 35.6412 129.963 33.0917 129.963 29.9466C129.963 26.8015 127.414 24.252 124.269 24.252C121.124 24.252 118.574 26.8015 118.574 29.9466C118.574 33.0917 121.124 35.6412 124.269 35.6412Z" fill="#7210FF"/>
<path d="M124.269 33.4156C126.185 33.4156 127.738 31.8627 127.738 29.9471C127.738 28.0314 126.185 26.4785 124.269 26.4785C122.354 26.4785 120.801 28.0314 120.801 29.9471C120.801 31.8627 122.354 33.4156 124.269 33.4156Z" fill="#1F222A"/>
</g>
<defs>
<clipPath id="clip0_1156_129863">
<rect width="184.403" height="180" fill="white" transform="translate(0.798828)"/>
</clipPath>
</defs>
</svg>
