<svg width="80" height="80" viewBox="0 0 80 80" fill="none" xmlns="http://www.w3.org/2000/svg">
<rect width="80" height="80" rx="40" fill="url(#paint0_linear_1153_32778)"/>
<path fill-rule="evenodd" clip-rule="evenodd" d="M33.504 25.002H46.509C51.594 25.002 54.999 28.572 54.999 33.882V46.1385C54.999 51.4335 51.594 55.002 46.509 55.002H33.504C28.419 55.002 24.999 51.4335 24.999 46.1385V33.882C24.999 28.572 28.419 25.002 33.504 25.002ZM44.5143 44.5024C45.0243 43.9939 45.0243 43.1689 44.5143 42.6589L41.8443 39.9889L44.5143 37.3174C45.0243 36.8089 45.0243 35.9689 44.5143 35.4589C44.0043 34.9474 43.1793 34.9474 42.6543 35.4589L39.9993 38.1274L37.3293 35.4589C36.8043 34.9474 35.9793 34.9474 35.4693 35.4589C34.9593 35.9689 34.9593 36.8089 35.4693 37.3174L38.1393 39.9889L35.4693 42.6439C34.9593 43.1689 34.9593 43.9939 35.4693 44.5024C35.7243 44.7574 36.0693 44.8939 36.3993 44.8939C36.7443 44.8939 37.0743 44.7574 37.3293 44.5024L39.9993 41.8489L42.6693 44.5024C42.9243 44.7739 43.2543 44.8939 43.5843 44.8939C43.9293 44.8939 44.2593 44.7574 44.5143 44.5024Z" fill="white"/>
<defs>
<linearGradient id="paint0_linear_1153_32778" x1="80" y1="80" x2="-15.1928" y2="52.3997" gradientUnits="userSpaceOnUse">
<stop stop-color="#FF4D67"/>
<stop offset="1" stop-color="#FF8A9B"/>
</linearGradient>
</defs>
</svg>