<svg width="61" height="60" viewBox="0 0 61 60" fill="none" xmlns="http://www.w3.org/2000/svg">
<rect x="0.5" width="60" height="60" rx="30" fill="#7210FF" fill-opacity="0.08"/>
<path d="M35.1667 28.8332H34V19.4998C34 18.2165 32.95 17.1665 31.6667 17.1665H29.3333C28.05 17.1665 27 18.2165 27 19.4998V28.8332H25.8333C22.6133 28.8332 20 31.4465 20 34.6665V42.8332H41V34.6665C41 31.4465 38.3867 28.8332 35.1667 28.8332ZM38.6667 40.4998H36.3333V36.9998C36.3333 36.3582 35.8083 35.8332 35.1667 35.8332C34.525 35.8332 34 36.3582 34 36.9998V40.4998H31.6667V36.9998C31.6667 36.3582 31.1417 35.8332 30.5 35.8332C29.8583 35.8332 29.3333 36.3582 29.3333 36.9998V40.4998H27V36.9998C27 36.3582 26.475 35.8332 25.8333 35.8332C25.1917 35.8332 24.6667 36.3582 24.6667 36.9998V40.4998H22.3333V34.6665C22.3333 32.7415 23.9083 31.1665 25.8333 31.1665H35.1667C37.0917 31.1665 38.6667 32.7415 38.6667 34.6665V40.4998Z" fill="#7210FF"/>
</svg>