<svg width="31" height="31" viewBox="0 0 31 31" fill="none" xmlns="http://www.w3.org/2000/svg">
<path fill-rule="evenodd" clip-rule="evenodd" d="M22.3049 0.931759C24.4027 0.800645 26.4714 1.52906 28.0302 2.95675C29.4579 4.51555 30.1863 6.58425 30.0698 8.69664V22.3034C30.2009 24.4158 29.4579 26.4845 28.0448 28.0433C26.486 29.471 24.4027 30.1994 22.3049 30.0683H8.69799C6.58557 30.1994 4.51686 29.471 2.95805 28.0433C1.53034 26.4845 0.801926 24.4158 0.933041 22.3034V8.69664C0.801926 6.58425 1.53034 4.51555 2.95805 2.95675C4.51686 1.52906 6.58557 0.800645 8.69799 0.931759H22.3049ZM14.0149 22.5656L23.8195 12.732C24.7081 11.8288 24.7081 10.372 23.8195 9.48332L21.9256 7.58944C21.0223 6.68621 19.5655 6.68621 18.6623 7.58944L17.6862 8.58008C17.5405 8.72577 17.5405 8.97343 17.6862 9.11911C17.6862 9.11911 20.0026 11.4209 20.0463 11.4792C20.2065 11.654 20.3085 11.8871 20.3085 12.1493C20.3085 12.6738 19.886 13.1108 19.347 13.1108C19.0993 13.1108 18.8662 13.0088 18.706 12.8486L16.273 10.4303C16.1565 10.3137 15.9525 10.3137 15.836 10.4303L8.88688 17.3793C8.40612 17.8601 8.12932 18.5011 8.11476 19.1858L8.02734 22.6385C8.02734 22.8278 8.08562 23.0027 8.21673 23.1338C8.34785 23.2649 8.52267 23.3377 8.71206 23.3377H12.1356C12.8349 23.3377 13.5051 23.0609 14.0149 22.5656Z" fill="#7210FF"/>
</svg>