<svg width="19" height="20" viewBox="0 0 19 20" fill="none" xmlns="http://www.w3.org/2000/svg">
<path fill-rule="evenodd" clip-rule="evenodd" d="M5.20941 0H13.5904C16.6794 0 18.3994 1.78 18.3994 4.83V15.16C18.3994 18.26 16.6794 20 13.5904 20H5.20941C2.16941 20 0.399414 18.26 0.399414 15.16V4.83C0.399414 1.78 2.16941 0 5.20941 0ZM5.47941 4.66V4.65H8.46841C8.89941 4.65 9.24941 5 9.24941 5.429C9.24941 5.87 8.89941 6.22 8.46841 6.22H5.47941C5.04841 6.22 4.69941 5.87 4.69941 5.44C4.69941 5.01 5.04841 4.66 5.47941 4.66ZM5.47941 10.74H13.3194C13.7494 10.74 14.0994 10.39 14.0994 9.96C14.0994 9.53 13.7494 9.179 13.3194 9.179H5.47941C5.04841 9.179 4.69941 9.53 4.69941 9.96C4.69941 10.39 5.04841 10.74 5.47941 10.74ZM5.47941 15.31H13.3194C13.7184 15.27 14.0194 14.929 14.0194 14.53C14.0194 14.12 13.7184 13.78 13.3194 13.74H5.47941C5.17941 13.71 4.88941 13.85 4.72941 14.11C4.56941 14.36 4.56941 14.69 4.72941 14.95C4.88941 15.2 5.17941 15.35 5.47941 15.31Z" fill="#7210FF"/>
</svg>