<svg width="52" height="52" viewBox="0 0 52 52" fill="none" xmlns="http://www.w3.org/2000/svg">
<g clip-path="url(#clip0_1400_28721)">
<path d="M52 26C52 11.6406 40.3594 0 26 0C11.6406 0 0 11.6406 0 26C0 40.3594 11.6406 52 26 52C40.3594 52 52 40.3594 52 26Z" fill="#CCA9FF"/>
<path d="M44 26C44 16.0589 35.9411 8 26 8C16.0589 8 8 16.0589 8 26C8 35.9411 16.0589 44 26 44C35.9411 44 44 35.9411 44 26Z" fill="#6800FF"/>
<path fill-rule="evenodd" clip-rule="evenodd" d="M18.916 24.5985C18.916 20.7652 22.1193 17.667 25.9939 17.667C29.8794 17.667 33.0827 20.7652 33.0827 24.5985C33.0827 26.5301 32.3802 28.3233 31.2239 29.8433C29.9484 31.5199 28.3761 32.9807 26.6065 34.1273C26.2014 34.3923 25.8359 34.4123 25.3914 34.1273C23.6116 32.9807 22.0394 31.5199 20.7748 29.8433C19.6177 28.3233 18.916 26.5301 18.916 24.5985ZM23.6612 24.8143C23.6612 26.0984 24.7091 27.1084 25.9939 27.1084C27.2796 27.1084 28.3375 26.0984 28.3375 24.8143C28.3375 23.5402 27.2796 22.481 25.9939 22.481C24.7091 22.481 23.6612 23.5402 23.6612 24.8143Z" fill="white"/>
</g>
<defs>
<clipPath id="clip0_1400_28721">
<rect width="52" height="52" fill="white"/>
</clipPath>
</defs>
</svg>

