<svg width="52" height="52" viewBox="0 0 52 52" fill="none" xmlns="http://www.w3.org/2000/svg">
<g clip-path="url(#clip0_1400_28711)">
<path d="M52 26C52 11.6406 40.3594 0 26 0C11.6406 0 0 11.6406 0 26C0 40.3594 11.6406 52 26 52C40.3594 52 52 40.3594 52 26Z" fill="#101010" fill-opacity="0.12"/>
<path d="M44 26C44 16.0589 35.9411 8 26 8C16.0589 8 8 16.0589 8 26C8 35.9411 16.0589 44 26 44C35.9411 44 44 35.9411 44 26Z" fill="url(#paint0_linear_1400_28711)"/>
<path fill-rule="evenodd" clip-rule="evenodd" d="M18.918 24.5985C18.918 20.7652 22.1212 17.667 25.9959 17.667C29.8814 17.667 33.0847 20.7652 33.0847 24.5985C33.0847 26.5301 32.3822 28.3233 31.2259 29.8433C29.9503 31.5199 28.3781 32.9807 26.6084 34.1273C26.2034 34.3923 25.8379 34.4123 25.3934 34.1273C23.6136 32.9807 22.0414 31.5199 20.7767 29.8433C19.6196 28.3233 18.918 26.5301 18.918 24.5985ZM23.6632 24.8143C23.6632 26.0984 24.711 27.1084 25.9959 27.1084C27.2815 27.1084 28.3395 26.0984 28.3395 24.8143C28.3395 23.5402 27.2815 22.481 25.9959 22.481C24.711 22.481 23.6632 23.5402 23.6632 24.8143Z" fill="white"/>
</g>
<defs>
<linearGradient id="paint0_linear_1400_28711" x1="44" y1="44" x2="1.16323" y2="31.5799" gradientUnits="userSpaceOnUse">
<stop stop-color="#7B1FFF"/>
<stop offset="1" stop-color="#964CFF"/>
</linearGradient>
<clipPath id="clip0_1400_28711">
<rect width="52" height="52" fill="white"/>
</clipPath>
</defs>
</svg>
