<svg width="44" height="35" viewBox="0 0 44 35" fill="none" xmlns="http://www.w3.org/2000/svg">
<g clip-path="url(#clip0_1577_18747)">
<path d="M7.9995 34.0329V31.7692C7.9995 30.9012 7.47116 30.3354 6.56555 30.3354C6.11283 30.3354 5.6223 30.4863 5.28267 30.9768C5.01867 30.5617 4.64141 30.3354 4.07542 30.3354C3.69798 30.3354 3.32089 30.4485 3.01891 30.8636V30.4108H2.22656V34.0329H3.01891V32.0332C3.01891 31.3919 3.35853 31.0899 3.88687 31.0899C4.41488 31.0899 4.67922 31.4295 4.67922 32.0332V34.0329H5.47156V32.0332C5.47156 31.3919 5.84866 31.0899 6.33919 31.0899C6.86753 31.0899 7.13153 31.4295 7.13153 32.0332V34.0329H7.9995ZM19.7336 30.4108H18.4509V29.3167H17.6585V30.4108H16.9416V31.1275H17.6584V32.7879C17.6584 33.618 17.998 34.1084 18.9036 34.1084C19.2432 34.1084 19.6203 33.9953 19.8847 33.8444L19.6581 33.1651C19.4318 33.316 19.1678 33.3538 18.979 33.3538C18.6018 33.3538 18.4509 33.1275 18.4509 32.7501V31.1275H19.7336V30.4108ZM26.4498 30.3352C25.997 30.3352 25.6952 30.5617 25.5065 30.8636V30.4108H24.7142V34.0329H25.5065V31.9955C25.5065 31.3919 25.7705 31.0523 26.261 31.0523C26.412 31.0523 26.6007 31.0901 26.7516 31.1277L26.9779 30.3732C26.827 30.3354 26.6007 30.3354 26.4498 30.3354V30.3352ZM16.3002 30.7126C15.9228 30.4485 15.3946 30.3354 14.8286 30.3354C13.9232 30.3354 13.3195 30.7881 13.3195 31.505C13.3195 32.1088 13.7723 32.4482 14.5646 32.5615L14.9419 32.5993C15.357 32.6746 15.5833 32.7879 15.5833 32.9766C15.5833 33.2406 15.2815 33.4293 14.7532 33.4293C14.225 33.4293 13.8099 33.2406 13.5457 33.052L13.1685 33.6557C13.5835 33.9575 14.1495 34.1084 14.7153 34.1084C15.7719 34.1084 16.3757 33.618 16.3757 32.9388C16.3757 32.2973 15.8851 31.9577 15.1304 31.8446L14.7532 31.8068C14.4135 31.769 14.1495 31.6937 14.1495 31.4673C14.1495 31.2032 14.4135 31.0523 14.8286 31.0523C15.2815 31.0523 15.7342 31.2408 15.9606 31.3541L16.3002 30.7126ZM37.354 30.3354C36.9011 30.3354 36.5993 30.5617 36.4106 30.8636V30.4108H35.6183V34.0329H36.4106V31.9955C36.4106 31.3919 36.6748 31.0523 37.1651 31.0523C37.3162 31.0523 37.5049 31.0901 37.6558 31.1277L37.8822 30.3732C37.7313 30.3354 37.5049 30.3354 37.354 30.3354ZM27.2421 32.2219C27.2421 33.316 27.9966 34.1084 29.1664 34.1084C29.6946 34.1084 30.0719 33.9953 30.4491 33.6935L30.0719 33.052C29.77 33.2784 29.4682 33.3915 29.1286 33.3915C28.4872 33.3915 28.0345 32.9388 28.0345 32.2219C28.0345 31.5428 28.4872 31.0899 29.1286 31.0523C29.4682 31.0523 29.77 31.1654 30.0719 31.3919L30.4491 30.7505C30.0719 30.4485 29.6946 30.3354 29.1664 30.3354C27.9966 30.3354 27.2421 31.1277 27.2421 32.2219ZM34.5619 32.2219V30.4108H33.7696V30.8636C33.5054 30.5241 33.1281 30.3354 32.6376 30.3354C31.6189 30.3354 30.8266 31.1277 30.8266 32.2219C30.8266 33.316 31.6189 34.1084 32.6376 34.1084C33.1658 34.1084 33.5432 33.9198 33.7696 33.5802V34.0329H34.5619V32.2219ZM31.6565 32.2219C31.6565 31.5804 32.0716 31.0523 32.7507 31.0523C33.3921 31.0523 33.845 31.5428 33.845 32.2219C33.845 32.8633 33.3921 33.3915 32.7507 33.3915C32.0716 33.3537 31.6565 32.8633 31.6565 32.2219ZM22.1862 30.3354C21.1297 30.3354 20.375 31.0899 20.375 32.2219C20.375 33.3538 21.1295 34.1084 22.2239 34.1084C22.752 34.1084 23.2804 33.9575 23.6955 33.618L23.318 33.052C23.0162 33.2784 22.639 33.4293 22.2617 33.4293C21.7712 33.4293 21.2806 33.2029 21.1674 32.5613H23.8464V32.2597C23.8842 31.0899 23.2049 30.3354 22.1861 30.3354H22.1862ZM22.1862 31.0145C22.6766 31.0145 23.0164 31.3164 23.0917 31.8824H21.2052C21.2806 31.3919 21.6202 31.0145 22.1862 31.0145ZM41.8439 32.2219V28.9771H41.0516V30.8636C40.7874 30.5241 40.4101 30.3354 39.9196 30.3354C38.9009 30.3354 38.1086 31.1277 38.1086 32.2219C38.1086 33.316 38.9009 34.1084 39.9196 34.1084C40.448 34.1084 40.8252 33.9198 41.0516 33.5802V34.0329H41.8439V32.2219ZM38.9387 32.2219C38.9387 31.5804 39.3536 31.0523 40.0329 31.0523C40.6743 31.0523 41.127 31.5428 41.127 32.2219C41.127 32.8633 40.6743 33.3915 40.0329 33.3915C39.3536 33.3537 38.9387 32.8633 38.9387 32.2219ZM12.4516 32.2219V30.4108H11.6592V30.8636C11.3951 30.5241 11.0178 30.3354 10.5273 30.3354C9.50856 30.3354 8.71622 31.1277 8.71622 32.2219C8.71622 33.316 9.50856 34.1084 10.5273 34.1084C11.0556 34.1084 11.4329 33.9198 11.6592 33.5802V34.0329H12.4516V32.2219ZM9.50856 32.2219C9.50856 31.5804 9.92364 31.0523 10.6027 31.0523C11.2442 31.0523 11.697 31.5428 11.697 32.2219C11.697 32.8633 11.2442 33.3915 10.6027 33.3915C9.92364 33.3537 9.50856 32.8633 9.50856 32.2219Z" fill="black"/>
<path d="M16.0352 2.90527H27.9203V24.2609H16.0352V2.90527Z" fill="#FF5F00"/>
<path d="M16.7903 13.5831C16.7903 9.24413 18.8277 5.3955 21.9593 2.9052C19.6579 1.09416 16.7527 0 13.5833 0C6.07458 0 0 6.07458 0 13.5831C0 21.0915 6.07458 27.1662 13.5831 27.1662C16.7525 27.1662 19.6577 26.0721 21.9593 24.2608C18.8277 21.8084 16.7903 17.9221 16.7903 13.5831Z" fill="#EB001B"/>
<path d="M43.9573 13.5831C43.9573 21.0915 37.8827 27.1662 30.3742 27.1662C27.2048 27.1662 24.2996 26.0721 21.998 24.2608C25.1674 21.7707 27.1672 17.9221 27.1672 13.5831C27.1672 9.24413 25.1296 5.3955 21.998 2.9052C24.2995 1.09416 27.2048 0 30.3742 0C37.8827 0 43.9575 6.11239 43.9575 13.5831H43.9573Z" fill="#F79E1B"/>
</g>
<defs>
<clipPath id="clip0_1577_18747">
<rect width="44" height="34.2031" fill="white"/>
</clipPath>
</defs>
</svg>