<svg width="61" height="60" viewBox="0 0 61 60" fill="none" xmlns="http://www.w3.org/2000/svg">
<rect x="0.5" width="60" height="60" rx="30" fill="#7210FF" fill-opacity="0.08"/>
<path d="M30.5 16.875C23.2515 16.875 17.375 22.7515 17.375 30C17.375 37.2476 23.2515 43.125 30.5 43.125C37.7485 43.125 43.625 37.2476 43.625 30C43.625 22.7515 37.7485 16.875 30.5 16.875ZM28.75 22.5625C28.75 22.125 29.1875 21.6875 29.625 21.6875H31.375C31.8125 21.6875 32.25 22.125 32.25 22.5625V24.3125C32.25 24.75 31.8125 25.1875 31.375 25.1866H29.625C29.1875 25.1875 28.75 24.75 28.75 24.3125V22.5625ZM33.125 31.75L32.6875 27.8125L32.25 38.3125H30.9375L30.5 32.625L30.0625 38.3125H28.75L28.3125 27.8125L27.875 31.75H26.5625L27 26.9375C27 26.5 27.4375 26.0625 27.875 26.0625H33.125C33.5625 26.0625 34 26.5 34 26.9375L34.4375 31.75H33.125Z" fill="#7210FF"/>
</svg>
