<svg width="61" height="60" viewBox="0 0 61 60" fill="none" xmlns="http://www.w3.org/2000/svg">
<rect x="0.5" width="60" height="60" rx="30" fill="#335EF7" fill-opacity="0.08"/>
<path d="M37.5003 20.6668V19.5002C37.5003 18.8585 36.9753 18.3335 36.3337 18.3335H22.3337C21.692 18.3335 21.167 18.8585 21.167 19.5002V24.1668C21.167 24.8085 21.692 25.3335 22.3337 25.3335H36.3337C36.9753 25.3335 37.5003 24.8085 37.5003 24.1668V23.0002H38.667V27.6668H28.167C27.5253 27.6668 27.0003 28.1918 27.0003 28.8335V40.5002C27.0003 41.1418 27.5253 41.6668 28.167 41.6668H30.5003C31.142 41.6668 31.667 41.1418 31.667 40.5002V30.0002H39.8337C40.4753 30.0002 41.0003 29.4752 41.0003 28.8335V21.8335C41.0003 21.1918 40.4753 20.6668 39.8337 20.6668H37.5003Z" fill="#1A96F0"/>
</svg>
