<svg width="16" height="16" viewBox="0 0 16 16" fill="none" xmlns="http://www.w3.org/2000/svg">
<path opacity="0.4" d="M8.65152 2.07558L10.1358 5.05843C10.2452 5.27454 10.4539 5.42462 10.6946 5.45797L14.0287 5.94355C14.2234 5.97089 14.4001 6.07361 14.5194 6.23036C14.6375 6.3851 14.6881 6.5812 14.6595 6.77397C14.6361 6.93405 14.5608 7.08213 14.4454 7.19552L12.0296 9.53737C11.8529 9.70079 11.7729 9.94291 11.8155 10.1797L12.4103 13.472C12.4737 13.8696 12.2103 14.2444 11.8155 14.3198C11.6528 14.3458 11.4861 14.3185 11.3394 14.2438L8.36546 12.6943C8.14474 12.5829 7.88402 12.5829 7.66331 12.6943L4.68933 14.2438C4.32392 14.4379 3.87116 14.3058 3.66778 13.9456C3.59243 13.8022 3.56576 13.6388 3.59043 13.4794L4.18523 10.1864C4.2279 9.95025 4.14722 9.70679 3.97118 9.54338L1.55533 7.20285C1.26793 6.92538 1.25927 6.46848 1.53599 6.181C1.54199 6.175 1.54866 6.16833 1.55533 6.16166C1.67002 6.04493 1.82072 5.97089 1.98342 5.95155L5.31747 5.4653C5.55752 5.43129 5.76623 5.28254 5.87626 5.0651L7.30723 2.07558C7.43459 1.81945 7.69865 1.66004 7.98538 1.66671H8.07473C8.32345 1.69672 8.54016 1.8508 8.65152 2.07558Z" fill="url(#paint0_linear_1488_18615)"/>
<path d="M7.99533 12.6112C7.86619 12.6153 7.74039 12.6499 7.62723 12.712L4.6678 14.2579C4.30569 14.4307 3.87236 14.2966 3.66934 13.9503C3.59412 13.8089 3.56683 13.6468 3.59213 13.488L4.18321 10.2019C4.22315 9.96308 4.14327 9.72021 3.96954 9.55207L1.55261 7.21215C1.26572 6.93126 1.26039 6.47021 1.54129 6.18264C1.54529 6.17864 1.54862 6.1753 1.55261 6.17197C1.6671 6.05854 1.81487 5.98381 1.97396 5.96046L5.3108 5.46939C5.55243 5.4387 5.76211 5.28791 5.86861 5.06906L7.31904 2.04192C7.45682 1.79772 7.72108 1.65226 8.00065 1.66761C7.99533 1.86577 7.99533 12.4765 7.99533 12.6112Z" fill="url(#paint1_linear_1488_18615)"/>
<defs>
<linearGradient id="paint0_linear_1488_18615" x1="14.6673" y1="14.3332" x2="-1.06634" y2="9.53124" gradientUnits="userSpaceOnUse">
<stop stop-color="#FB9400"/>
<stop offset="1" stop-color="#FFAB38"/>
</linearGradient>
<linearGradient id="paint1_linear_1488_18615" x1="8.00065" y1="14.3332" x2="-0.403254" y2="13.0507" gradientUnits="userSpaceOnUse">
<stop stop-color="#FB9400"/>
<stop offset="1" stop-color="#FFAB38"/>
</linearGradient>
</defs>
</svg>
