<svg width="186" height="180" viewBox="0 0 186 180" fill="none" xmlns="http://www.w3.org/2000/svg">
<circle cx="95.5" cy="90.5" r="70.5" fill="url(#paint0_linear_1577_12448)"/>
<circle cx="178.467" cy="27.5" r="7.5" fill="#AA70FF"/>
<circle cx="20.0332" cy="10" r="10" fill="#AA70FF"/>
<circle cx="10.0332" cy="133" r="5" fill="#AA70FF"/>
<circle cx="165.533" cy="160.5" r="2.5" fill="#AA70FF"/>
<path fill-rule="evenodd" clip-rule="evenodd" d="M84.8548 65.916H106.169C114.502 65.916 120.083 71.7668 120.083 80.4693V100.556C120.083 109.232 114.502 115.083 106.169 115.083H84.8548C76.521 115.083 70.916 109.232 70.916 100.556V80.4693C70.916 71.7668 76.521 65.916 84.8548 65.916ZM94.0981 97.8498L105.775 86.1727C106.611 85.3368 106.611 83.9848 105.775 83.1243C104.939 82.2885 103.563 82.2885 102.727 83.1243L92.5739 93.2773L88.2719 88.9752C87.436 88.1393 86.0594 88.1393 85.2235 88.9752C84.3877 89.811 84.3877 91.1631 85.2235 92.0235L91.0744 97.8498C91.4923 98.2677 92.0331 98.4643 92.5739 98.4643C93.1393 98.4643 93.6802 98.2677 94.0981 97.8498Z" fill="white"/>
<circle cx="106.533" cy="4.5" r="2.5" fill="#AA70FF"/>
<circle cx="62.5332" cy="176.5" r="3.5" fill="#AA70FF"/>
<circle cx="122.033" cy="171" r="1" fill="#AA70FF"/>
<circle cx="170.533" cy="110.5" r="2.5" fill="#AA70FF"/>
<circle cx="1.0332" cy="75" r="1" fill="#AA70FF"/>
<defs>
<linearGradient id="paint0_linear_1577_12448" x1="166" y1="161" x2="-1.77734" y2="112.355" gradientUnits="userSpaceOnUse">
<stop stop-color="#7210FF"/>
<stop offset="1" stop-color="#9D59FF"/>
</linearGradient>
</defs>
</svg>
