<svg width="61" height="60" viewBox="0 0 61 60" fill="none" xmlns="http://www.w3.org/2000/svg">
<rect x="0.5" width="60" height="60" rx="30" fill="#FF9800" fill-opacity="0.08"/>
<path d="M41.828 39.6718L40.1713 41.3285C39.9527 41.5458 39.657 41.6678 39.3488 41.6678C39.0406 41.6678 38.7449 41.5458 38.5263 41.3285L24.6663 27.4918C24.2869 27.6017 23.8946 27.6606 23.4996 27.6668C22.7568 27.6663 22.0249 27.4885 21.3646 27.1481C20.7044 26.8077 20.1349 26.3147 19.7036 25.7099C19.2723 25.1051 18.9916 24.4061 18.8848 23.6711C18.778 22.936 18.8482 22.186 19.0896 21.4835L22.053 24.4468L22.6713 23.8285L24.328 22.1718L24.9463 21.5535L21.983 18.5902C22.6854 18.3487 23.4354 18.2785 24.1705 18.3853C24.9056 18.4921 25.6046 18.7728 26.2094 19.2041C26.8141 19.6355 27.3072 20.2049 27.6475 20.8652C27.9879 21.5254 28.1658 22.2573 28.1663 23.0002C28.1601 23.3951 28.1012 23.7874 27.9913 24.1668L41.828 38.0268C42.0452 38.2454 42.1672 38.5411 42.1672 38.8493C42.1672 39.1575 42.0452 39.4532 41.828 39.6718V39.6718ZM19.1713 38.0268C18.954 38.2454 18.832 38.5411 18.832 38.8493C18.832 39.1575 18.954 39.4532 19.1713 39.6718L20.828 41.3285C21.0465 41.5458 21.3422 41.6678 21.6505 41.6678C21.9587 41.6678 22.2544 41.5458 22.473 41.3285L28.8546 34.9585L25.553 31.6568L19.1713 38.0268ZM39.833 18.3335L35.1663 20.6668V23.0002L32.6346 25.5318L34.968 27.8652L37.4996 25.3335H39.833L42.1663 20.6668L39.833 18.3335Z" fill="#FF981F"/>
</svg>