<svg width="61" height="60" viewBox="0 0 61 60" fill="none" xmlns="http://www.w3.org/2000/svg">
<rect x="0.5" width="60" height="60" rx="30" fill="#00BCD4" fill-opacity="0.08"/>
<path d="M38.8413 25.3332C38.6377 24.9805 38.3454 24.6873 37.9934 24.4826C37.6413 24.2779 37.2419 24.169 36.8347 24.1665H33.9997V21.8332C33.9997 21.5238 33.8768 21.227 33.658 21.0082C33.4392 20.7894 33.1424 20.6665 32.833 20.6665H21.1663C20.5475 20.6665 19.954 20.9123 19.5164 21.3499C19.0788 21.7875 18.833 22.381 18.833 22.9998V34.6665C18.8334 35.0757 18.9414 35.4776 19.1462 35.8318C19.351 36.1861 19.6453 36.4802 19.9997 36.6848C19.9579 37.7678 20.348 38.823 21.0843 39.6183C21.8205 40.4136 22.8425 40.8839 23.9255 40.9257C25.0085 40.9674 26.0637 40.5773 26.859 39.8411C27.6543 39.1048 28.1246 38.0828 28.1663 36.9998H31.783C31.912 37.976 32.3914 38.872 33.1318 39.521C33.8723 40.1701 34.8234 40.5279 35.808 40.5279C36.7926 40.5279 37.7437 40.1701 38.4842 39.521C39.2246 38.872 39.704 37.976 39.833 36.9998C40.4518 36.9998 41.0453 36.754 41.4829 36.3164C41.9205 35.8788 42.1663 35.2853 42.1663 34.6665V31.1665C42.1645 30.9537 42.1083 30.7448 42.003 30.5598L38.8413 25.3332ZM33.9997 26.4998H36.8347L38.9347 29.9998H33.9997V26.4998ZM24.083 38.1665C23.7369 38.1665 23.3985 38.0639 23.1108 37.8716C22.823 37.6793 22.5987 37.406 22.4662 37.0862C22.3338 36.7664 22.2991 36.4146 22.3666 36.0751C22.4342 35.7356 22.6008 35.4238 22.8456 35.1791C23.0903 34.9343 23.4021 34.7677 23.7416 34.7001C24.0811 34.6326 24.4329 34.6673 24.7527 34.7997C25.0725 34.9322 25.3458 35.1565 25.5381 35.4443C25.7304 35.732 25.833 36.0704 25.833 36.4165C25.833 36.8806 25.6486 37.3258 25.3204 37.6539C24.9923 37.9821 24.5471 38.1665 24.083 38.1665ZM35.7497 38.1665C35.4036 38.1665 35.0652 38.0639 34.7774 37.8716C34.4896 37.6793 34.2653 37.406 34.1329 37.0862C34.0004 36.7664 33.9658 36.4146 34.0333 36.0751C34.1008 35.7356 34.2675 35.4238 34.5122 35.1791C34.757 34.9343 35.0688 34.7677 35.4083 34.7001C35.7477 34.6326 36.0996 34.6673 36.4194 34.7997C36.7391 34.9322 37.0125 35.1565 37.2047 35.4443C37.397 35.732 37.4997 36.0704 37.4997 36.4165C37.4997 36.8806 37.3153 37.3258 36.9871 37.6539C36.6589 37.9821 36.2138 38.1665 35.7497 38.1665Z" fill="#00BCD3"/>
</svg>
