<svg width="80" height="80" viewBox="0 0 80 80" fill="none" xmlns="http://www.w3.org/2000/svg">
<g clip-path="url(#clip0_1382_28707)">
<path d="M80 40C80 17.9086 62.0914 0 40 0C17.9086 0 0 17.9086 0 40C0 62.0914 17.9086 80 40 80C62.0914 80 80 62.0914 80 40Z" fill="url(#paint0_linear_1382_28707)"/>
<mask id="mask0_1382_28707" style="mask-type:alpha" maskUnits="userSpaceOnUse" x="26" y="26" width="28" height="27">
<path fill-rule="evenodd" clip-rule="evenodd" d="M26.4407 28.5084C25.8531 27.9338 25.8531 27.0056 26.4407 26.4309C26.7223 26.155 27.1045 26 27.503 26C27.9016 26 28.2838 26.155 28.5653 26.4309L53.1562 50.4915C53.7438 51.0662 53.7438 51.9944 53.1562 52.569C52.5685 53.1437 51.6193 53.1437 51.0316 52.569L47.2948 48.915C47.0537 49.0623 46.7825 49.1802 46.466 49.1802H28.3845C27.5558 49.1802 26.8777 48.5172 26.8777 47.7068V32.9728C26.8777 32.1625 27.5558 31.4994 28.3845 31.4994H29.4845L26.4407 28.5084ZM54.0002 35.7871V43.5814C54.0002 44.8927 52.3728 45.5558 51.4386 44.6275L38.0131 31.4996H46.4662C47.295 31.4996 47.973 32.1626 47.973 32.9729V38.1298L51.4236 34.741C52.3728 33.8128 54.0002 34.4758 54.0002 35.7871Z" fill="black"/>
</mask>
<g mask="url(#mask0_1382_28707)">
<path d="M58 22H22V58H58V22Z" fill="white"/>
</g>
</g>
<defs>
<linearGradient id="paint0_linear_1382_28707" x1="80" y1="80" x2="-15.1928" y2="52.3997" gradientUnits="userSpaceOnUse">
<stop stop-color="#7210FF"/>
<stop offset="1" stop-color="#9D59FF"/>
</linearGradient>
<clipPath id="clip0_1382_28707">
<rect width="80" height="80" fill="white"/>
</clipPath>
</defs>
</svg>

