<svg width="80" height="80" viewBox="0 0 80 80" fill="none" xmlns="http://www.w3.org/2000/svg">
<rect width="80" height="80" rx="40" fill="url(#paint0_linear_1153_32787)"/>
<path fill-rule="evenodd" clip-rule="evenodd" d="M42.0366 31.6778C41.9611 30.9483 41.8825 30.1914 41.689 29.4361C41.1621 27.6292 39.7024 26.502 38.1374 26.502C37.2645 26.4987 36.1603 27.0366 35.5343 27.5809L30.3453 31.9274H27.6289C25.6297 31.9274 24.0222 33.4686 23.7187 35.6925C23.4607 37.8279 23.3978 41.8587 23.7187 44.2083C23.9971 46.5579 25.5322 48.0765 27.6289 48.0765H30.3453L35.6349 52.4874C36.1776 52.9592 37.1355 53.5003 38.0163 53.5003C38.0729 53.5019 38.1233 53.5019 38.1736 53.5019C39.7685 53.5019 41.1731 52.3328 41.7 50.5307C41.8985 49.7689 41.9681 49.0548 42.0354 48.3648V48.3647L42.0366 48.3519L42.1074 47.6642C42.3779 45.4338 42.3779 34.5556 42.1074 32.3413L42.0366 31.6778ZM48.1102 31.7441C47.6776 31.1064 46.8204 30.947 46.1928 31.3899C45.5715 31.8359 45.4174 32.7152 45.8499 33.3513C47.0532 35.1244 47.7154 37.4852 47.7154 40.0023C47.7154 42.5177 47.0532 44.8802 45.8499 46.6532C45.4174 47.2893 45.5715 48.1686 46.1944 48.6147C46.4272 48.779 46.6993 48.8659 46.9792 48.8659C47.4307 48.8659 47.8522 48.6389 48.1102 48.2604C49.6296 46.022 50.4679 43.0894 50.4679 40.0023C50.4679 36.9151 49.6296 33.9826 48.1102 31.7441ZM50.9364 26.8343C51.5624 26.3899 52.4227 26.5525 52.8521 27.1886C55.2052 30.6526 56.5013 35.2052 56.5013 40.0026C56.5013 44.8032 55.2052 49.3542 52.8521 52.8181C52.5958 53.1966 52.1727 53.4237 51.7212 53.4237C51.4413 53.4237 51.1707 53.3367 50.9379 53.1724C50.3151 52.7264 50.1609 51.8487 50.5919 51.211C52.6272 48.2124 53.7487 44.2315 53.7487 40.0026C53.7487 35.7753 52.6272 31.7944 50.5919 28.7958C50.1609 28.1597 50.3151 27.2804 50.9364 26.8343Z" fill="white"/>
<defs>
<linearGradient id="paint0_linear_1153_32787" x1="80" y1="80" x2="-15.1928" y2="52.3997" gradientUnits="userSpaceOnUse">
<stop stop-color="#FB9400"/>
<stop offset="1" stop-color="#FFAB38"/>
</linearGradient>
</defs>
</svg>