<svg width="21" height="20" viewBox="0 0 21 20" fill="none" xmlns="http://www.w3.org/2000/svg">
<path fill-rule="evenodd" clip-rule="evenodd" d="M0.599609 10.015C0.599609 4.74712 4.80961 0 10.6196 0C16.2996 0 20.5996 4.65699 20.5996 9.98498C20.5996 16.1642 15.5596 20 10.5996 20C8.95961 20 7.13961 19.5593 5.67961 18.698C5.16961 18.3876 4.73961 18.1572 4.18961 18.3375L2.16961 18.9384C1.65961 19.0986 1.19961 18.698 1.34961 18.1572L2.01961 15.9139C2.12961 15.6034 2.10961 15.2729 1.94961 15.0125C1.08961 13.4301 0.599609 11.6975 0.599609 10.015ZM9.29961 10.015C9.29961 10.7261 9.86961 11.2969 10.5796 11.307C11.2896 11.307 11.8596 10.7261 11.8596 10.025C11.8596 9.31397 11.2896 8.74311 10.5796 8.74311C9.87961 8.7331 9.29961 9.31397 9.29961 10.015ZM13.9096 10.025C13.9096 10.7261 14.4796 11.307 15.1896 11.307C15.8996 11.307 16.4696 10.7261 16.4696 10.025C16.4696 9.31397 15.8996 8.74311 15.1896 8.74311C14.4796 8.74311 13.9096 9.31397 13.9096 10.025ZM5.96961 11.307C5.26961 11.307 4.68961 10.7261 4.68961 10.025C4.68961 9.31397 5.25961 8.74311 5.96961 8.74311C6.67961 8.74311 7.24961 9.31397 7.24961 10.025C7.24961 10.7261 6.67961 11.2969 5.96961 11.307Z" fill="#7210FF"/>
</svg>